# AST/ASF file generated using VICON BodyLanguage
# -----------------------------------------------
:version 1.10
:name VICON
:units
  mass 1.0
  length 0.45
  angle deg
:documentation
   .ast/.asf automatically generated from VICON data using
   VICON BodyBuilder and BodyLanguage model FoxedUp or BRILLIANT.MOD
:root
   order TX TY TZ RX RY RZ
   axis XYZ
   position 0 0 0  
   orientation 0 0 0 
:bonedata
  begin
     id 1 
     name lhipjoint
     direction 0.645897 -0.709066 0.282916 
     length 2.50918 
     axis 0 0 0  XYZ
  end
  begin
     id 2 
     name lfemur
     direction 0.34202 -0.939693 0  
     length 6.85725  
     axis 0 0 20  XYZ
    dof rx ry rz
    limits (-160.0 20.0)
           (-70.0 70.0)
           (-60.0 70.0)
  end
  begin
     id 3 
     name ltibia
     direction 0.34202 -0.939693 0   
     length 8.01778   
     axis 0 0 20   XYZ
    dof rx
    limits (-10.0 170.0)
  end
  begin
     id 4 
     name lfoot
     direction 0.0796011 -0.218702 0.972539   
     length 2.13962   
     axis -90 7.62852e-016 20   XYZ
    dof rx rz
    limits (-45.0 90.0)
           (-70.0 20.0)
  end
  begin
     id 5 
     name ltoes
     direction 1.53548e-011 -4.21881e-011 1   
     length 1.07476   
     axis -90 7.62852e-016 20   XYZ
    dof rx
    limits (-90.0 20.0)
  end
  begin
     id 6 
     name rhipjoint
     direction -0.63101 -0.720537 0.287493   
     length 2.46923  
     axis 0 0 0  XYZ 
  end
  begin
     id 7 
     name rfemur
     direction -0.34202 -0.939693 0   
     length 6.81957   
     axis 0 0 -20   XYZ
    dof rx ry rz
    limits (-160.0 20.0)
           (-70.0 70.0)
           (-70.0 60.0)
  end
  begin
     id 8 
     name rtibia
     direction -0.34202 -0.939693 0   
     length 8.15152   
     axis 0 0 -20   XYZ
    dof rx
    limits (-10.0 170.0)
 end
 begin
     id 9 
     name rfoot
     direction -0.105819 -0.290734 0.950934   
     length 2.14588  
     axis -90 -7.62852e-016 -20   XYZ
    dof rx rz
    limits (-45.0 90.0)
           (-20.0 70.0)
  end
  begin
     id 10 
     name rtoes
     direction -1.53512e-011 -4.22005e-011 1   
     length 1.0703   
     axis -90 -7.62852e-016 -20   XYZ
    dof rx
    limits (-90.0 20.0)
  end
  begin
     id 11 
     name lowerback
     direction 0.0114933 0.999236 0.0373542   
     length 1.91711   
     axis 0 0 0   XYZ
    dof rx ry rz
    limits (-20.0 45.0)
           (-30.0 30.0)
           (-30.0 30.0)
  end
  begin
     id 12 
     name upperback
     direction 0.00911529 0.998099 0.0609554   
     length 1.90888   
     axis 0 0 0   XYZ
    dof rx ry rz
    limits (-20.0 45.0)
           (-30.0 30.0)
           (-30.0 30.0)
  end
  begin
     id 13 
     name thorax
     direction 0.00357322 0.99911 0.0420379   
     length 1.90942   
     axis 0 0 0   XYZ
    dof rx ry rz
    limits (-20.0 45.0)
           (-30.0 30.0)
           (-30.0 30.0)
  end
  begin
     id 14 
     name lowerneck
     direction -0.0589311 0.997882 0.0275448   
     length 1.83956   
     axis 0 0 0   XYZ
    dof rx ry rz
    limits (-20.0 45.0)
           (-30.0 30.0)
           (-30.0 30.0)
  end
  begin
     id 15 
     name upperneck
     direction 0.0362633 0.960055 -0.277453   
     length 1.82031   
     axis 0 0 0   XYZ
    dof rx ry rz
    limits (-20.0 45.0)
           (-30.0 30.0)
           (-30.0 30.0)
  end
  begin
     id 16
     name head
     direction 0.0166719 0.995328 -0.0951042  
     length 1.86084  
     axis 0 0 0   XYZ
    dof rx ry rz
    limits (-20.0 45.0)
           (-30.0 30.0)
           (-30.0 30.0)
  end
  begin
     id 17 
     name lclavicle
     direction 0.90319 0.426238 0.0506919  
     length 3.17828  
     axis 0 0 0   XYZ
    dof ry rz
    limits (-20.0 10.0)
           (0.0 20.0)
  end
  begin
     id 18 
     name lhumerus
     direction 1 -4.48953e-011 6.78797e-028   
     length 5.43592   
     axis 180 -30 -90   XYZ
    dof rx ry rz
    limits (-60.0 90.0)
           (-90.0 90.0)
           (-90.0 90.0)
  end
  begin
     id 19
     name lradius
     direction 1 -4.48969e-011 7.02702e-027   
     length 3.2546   
     axis 180 -30 -90   XYZ
    dof rx
    limits (-10.0 170.0)
  end
  begin
     id 20
     name lwrist
     direction 1 -4.48975e-011 1.29807e-026   
     length 1.6273   
     axis -8.50346e-015 90 90   XYZ
    dof ry
    limits (-180.0 0.0)
 end
  begin
     id 21 
     name lhand
     direction 1 -4.48917e-011 2.59615e-026   
     length 0.498244   
     axis -1.65656e-014 90 90   XYZ
    dof rx rz
    limits (-90.0 90.0)
           (-45.0 45.0)
  end
  begin
     id 22 
     name lfingers
     direction 1 -4.48885e-011 5.1923e-026   
     length 0.401697   
     axis -3.31313e-014 90 90   XYZ
    dof rx
    limits (0.0 90.0)
  end
  begin
     id 23
     name lthumb
     direction 0.707107 -6.34946e-011 0.707107   
     length 0.576759   
     axis -90 45 2.85299e-015   XYZ
    dof rx rz
    limits (-45.0 45.0)
           (-45.0 45.0)
  end
  begin
     id 24 
     name rclavicle
     direction -0.908603 0.391432 0.145676   
     length 3.15477  
     axis 0 0 0   XYZ 
    dof ry rz
    limits (-10.0 20.0)
           (-20.0 0.0)
  end
  begin
     id 25 
     name rhumerus
     direction -1 -4.4898e-011 1.02852e-027  
     length 5.3383   
     axis 180 30 90   XYZ
    dof rx ry rz
    limits (-90.0 60.0)
           (-90.0 90.0)
           (-90.0 90.0)
  end
  begin
     id 26 
     name rradius
     direction -1 -4.48968e-011 7.05567e-027   
     length 3.23148   
     axis 180 30 90   XYZ
    dof rx
    limits (-10.0 170.0)
  end
  begin
     id 27 
     name rwrist
     direction -1 -4.48927e-011 1.29807e-026   
     length 1.61574   
     axis -8.50346e-015 -90 -90   XYZ
    dof ry
    limits (-180.0 0.0)
  end
  begin
     id 28
     name rhand
     direction -1 -4.48905e-011 2.59615e-026   
     length 0.463641   
     axis -1.65656e-014 -90 -90   XYZ
    dof rx rz
    limits (-90.0 90.0)
           (-45.0 45.0)
  end
  begin
     id 29
     name rfingers
     direction -1 -4.49167e-011 5.1923e-026   
     length 0.373799   
     axis -3.31313e-014 -90 -90   XYZ
    dof rx
    limits (0.0 90.0)
  end
  begin
     id 30
     name rthumb
     direction -0.707107 -6.34954e-011 0.707107   
     length 0.536703   
     axis -90 -45 -2.85299e-015   XYZ
    dof rx rz
    limits (-45.0 45.0)
           (-45.0 45.0)
  end
:hierarchy
  begin
    root lhipjoint rhipjoint lowerback
    lhipjoint lfemur
    lfemur ltibia
    ltibia lfoot
    lfoot ltoes
    rhipjoint rfemur
    rfemur rtibia
    rtibia rfoot
    rfoot rtoes
    lowerback upperback
    upperback thorax
    thorax lowerneck lclavicle rclavicle
    lowerneck upperneck
    upperneck head
    lclavicle lhumerus
    lhumerus lradius
    lradius lwrist
    lwrist lhand lthumb
    lhand lfingers
    rclavicle rhumerus
    rhumerus rradius
    rradius rwrist
    rwrist rhand rthumb
    rhand rfingers
  end

#!OML:ASF F:\VICON\USERDATA\INSTALL\rory3\rory3.ASF
:FULLY-SPECIFIED
:DEGREES
1
root 3.76436 17.433 3.67153 21.3672 -7.82105 -1.38926
lowerback -11.336 1.20737 7.31746
upperback -13.8217 1.20083 1.11203
thorax -8.39061 -0.0465514 -2.83048
lowerneck -2.33673 18.2681 13.0551
upperneck 11.5342 22.9064 7.62269
head 4.4443 12.1554 1.632
rclavicle -5.96354e-015 -3.97569e-015
rhumerus -9.51269 -24.0621 26.9017
rradius 121.682
rwrist -59.3895
rhand -3.91294 -46.2141
rfingers 7.12502
rthumb 21.8376 -75.0019
lclavicle -5.96354e-015 -3.97569e-015
lhumerus 33.1087 26.8804 -16.6845
lradius 28.7709
lwrist 25.281
lhand -25.8372 -22.8955
lfingers 7.12502
lthumb 0.702983 7.08312
rfemur 4.73581 4.23817 0.550992
rtibia -1.27222e-014
rfoot -18.1569 -24.3136
rtoes 42.5539
lfemur -28.8479 -1.76052 -24.8201
ltibia 25.6735
lfoot -16.1259 5.75257
ltoes 9.18287
2
root 3.76392 17.4322 3.67022 21.4629 -7.99147 -1.22539
lowerback -11.3698 1.22692 7.11847
upperback -13.8826 1.23217 1.03498
thorax -8.43468 -0.0204271 -2.80082
lowerneck -2.26213 18.2466 13.1504
upperneck 11.5111 22.8971 7.50396
head 4.44998 12.1469 1.5826
rclavicle -3.81667e-014 -1.59028e-015
rhumerus -9.51021 -24.0777 26.8949
rradius 121.659
rwrist -59.3543
rhand -3.47246 -46.0517
rfingers 7.12502
rthumb 22.2605 -74.7896
lclavicle -3.81667e-014 -1.59028e-015
lhumerus 33.0756 26.8954 -16.8277
lradius 28.7832
lwrist 25.4153
lhand -25.5441 -22.9444
lfingers 7.12502
lthumb 0.986062 7.03308
rfemur 4.55626 4.29283 0.289887
rtibia 1.27222e-014
rfoot -19.0247 -22.8026
rtoes 43.9886
lfemur -28.9185 -1.62257 -25.071
ltibia 25.5979
lfoot -16.2614 5.72634
ltoes 9.17179
3
root 3.7654 17.4331 3.66866 21.8108 -8.32557 -1.26733
lowerback -11.5438 1.36585 7.05217
upperback -13.9987 1.40606 0.999528
thorax -8.45312 0.0666117 -2.79168
lowerneck -2.23883 18.2244 13.1738
upperneck 11.3869 22.8884 7.39337
head 4.42201 12.132 1.53964
rclavicle 8.54774e-015 3.4191e-014
rhumerus -9.53817 -24.0476 26.9613
rradius 121.625
rwrist -59.2689
rhand -3.02174 -45.8613
rfingers 7.12502
rthumb 22.6931 -74.5469
lclavicle 8.54774e-015 3.4191e-014
lhumerus 33.1874 27.0487 -16.7255
lradius 28.7341
lwrist 25.2624
lhand -25.4209 -23.3004
lfingers 7.12502
lthumb 1.10507 6.67647
rfemur 4.02711 4.48376 0.145875
rtibia 9.54166e-015
rfoot -19.4579 -22.2771
rtoes 44.6535
lfemur -29.3222 -1.57652 -25.0978
ltibia 25.6582
lfoot -16.1514 5.97315
ltoes 8.92449
4
root 3.76212 17.4301 3.67764 21.557 -7.95918 -1.2782
lowerback -11.3935 1.25898 7.1881
upperback -13.9434 1.26958 0.990807
thorax -8.48869 -0.0139941 -2.88478
lowerneck -2.44834 18.203 13.117
upperneck 11.5776 22.8093 7.48911
head 4.49663 12.1073 1.5987
rclavicle 3.18055e-014 -1.66979e-014
rhumerus -9.52241 -24.0449 26.9807
rradius 121.595
rwrist -59.2017
rhand -2.92135 -45.868
rfingers 7.12502
rthumb 22.7894 -74.5418
lclavicle 3.18055e-014 -1.66979e-014
lhumerus 33.335 27.1946 -16.531
lradius 28.6692
lwrist 25.0552
lhand -25.6157 -23.6109
lfingers 7.12502
lthumb 0.916923 6.36688
rfemur 4.51258 4.25315 0.363589
rtibia -3.81667e-014
rfoot -20.7235 -21.01
rtoes 46.4119
lfemur -29.0485 -1.68158 -24.9894
ltibia 25.6954
lfoot -16.1317 5.76305
ltoes 8.8171
5
root 3.7595 17.428 3.68006 21.4522 -7.79465 -1.33093
lowerback -11.2934 1.20672 7.32046
upperback -13.9457 1.20299 0.98866
thorax -8.55664 -0.0620311 -2.96455
lowerneck -2.41998 18.1624 13.188
upperneck 11.6201 22.764 7.37975
head 4.52583 12.0846 1.56036
rclavicle 1.98785e-016 1.19271e-014
rhumerus -9.40757 -24.1745 26.9013
rradius 121.507
rwrist -59.2412
rhand -2.9305 -46.096
rfingers 7.12502
rthumb 22.7807 -74.7709
lclavicle 1.98785e-016 1.19271e-014
lhumerus 33.3474 27.2114 -16.5337
lradius 28.6699
lwrist 25.0877
lhand -25.6115 -23.4666
lfingers 7.12502
lthumb 0.921006 6.51114
rfemur 4.72186 4.16394 0.5201
rtibia -9.54166e-015
rfoot -21.7687 -19.9189
rtoes 47.7695
lfemur -28.9624 -1.62724 -24.9122
ltibia 25.7733
lfoot -16.2591 5.58252
ltoes 8.96229
6
root 3.7597 17.4262 3.68568 21.438 -7.77121 -1.33313
lowerback -11.3561 1.20065 7.40541
upperback -13.9088 1.18029 0.946845
thorax -8.48188 -0.0804623 -3.0569
lowerneck -2.40661 18.1797 13.2619
upperneck 11.5484 22.8043 7.22609
head 4.52779 12.0958 1.51004
rclavicle 6.85807e-015 -3.65764e-014
rhumerus -9.35185 -24.3236 26.8462
rradius 121.427
rwrist -59.2502
rhand -3.20832 -46.3056
rfingers 7.12502
rthumb 22.514 -75.013
lclavicle 6.85807e-015 -3.65764e-014
lhumerus 33.2074 27.1656 -16.7831
lradius 28.7334
lwrist 25.2891
lhand -25.587 -23.1951
lfingers 7.12502
lthumb 0.944661 6.78257
rfemur 4.77166 4.14876 0.545926
rtibia -2.54444e-014
rfoot -21.7383 -19.9727
rtoes 47.6347
lfemur -28.9523 -1.48661 -24.9581
ltibia 25.8397
lfoot -16.4016 5.45311
ltoes 8.99061
7
root 3.76065 17.4251 3.69312 21.4739 -7.69695 -1.38877
lowerback -11.4735 1.21212 7.53563
upperback -13.8633 1.17363 0.913996
thorax -8.36612 -0.0925039 -3.16351
lowerneck -2.59827 18.202 13.19
upperneck 11.5465 22.8036 7.26574
head 4.54417 12.0959 1.54603
rclavicle -2.3556e-014 9.54166e-015
rhumerus -9.48209 -24.2526 26.9556
rradius 121.479
rwrist -59.217
rhand -4.10573 -46.4624
rfingers 7.12502
rthumb 21.6524 -75.2717
lclavicle -2.3556e-014 9.54166e-015
lhumerus 33.0463 27.0136 -17.1147
lradius 28.8211
lwrist 25.663
lhand -25.4562 -23.0587
lfingers 7.12502
lthumb 1.07098 6.91835
rfemur 4.80109 4.09305 0.633468
rtibia 1.27222e-014
rfoot -21.2655 -20.4345
rtoes 46.9355
lfemur -28.9965 -1.4674 -24.9034
ltibia 25.8958
lfoot -16.4451 5.38433
ltoes 9.04398
8
root 3.7596 17.4236 3.6959 21.4469 -7.62737 -1.3975
lowerback -11.4581 1.21804 7.59188
upperback -13.8563 1.17805 0.871836
thorax -8.36643 -0.0975262 -3.2401
lowerneck -2.65 18.1404 13.1054
upperneck 11.4372 22.7248 7.26966
head 4.50569 12.0499 1.54593
rclavicle 1.68967e-014 -2.78299e-014
rhumerus -9.6469 -24.0218 27.1414
rradius 121.553
rwrist -59.0393
rhand -5.04333 -46.4934
rfingers 7.12502
rthumb 20.7518 -75.4038
lclavicle 1.68967e-014 -2.78299e-014
lhumerus 33.1547 27.0553 -17.0572
lradius 28.8021
lwrist 25.649
lhand -25.27 -22.8873
lfingers 7.12502
lthumb 1.25081 7.08879
rfemur 4.88754 4.04426 0.675033
rtibia 2.54444e-014
rfoot -21.3324 -20.2974
rtoes 47.0207
lfemur -28.9861 -1.50024 -24.8715
ltibia 25.9373
lfoot -16.481 5.33195
ltoes 9.26203
9
root 3.76134 17.422 3.69856 21.4357 -7.55631 -1.39341
lowerback -11.4509 1.22897 7.69268
upperback -13.8694 1.18517 0.799625
thorax -8.38589 -0.108473 -3.37347
lowerneck -2.55127 18.1066 13.1558
upperneck 11.3345 22.7034 7.22028
head 4.4685 12.0332 1.50964
rclavicle 8.05078e-015 -1.59028e-015
rhumerus -9.74807 -23.8872 27.2107
rradius 121.569
rwrist -58.8103
rhand -6.01606 -46.5891
rfingers 7.12502
rthumb 19.8169 -75.5988
lclavicle 8.05078e-015 -1.59028e-015
lhumerus 33.5628 27.5244 -16.5112
lradius 28.6668
lwrist 25
lhand -25.2893 -22.8421
lfingers 7.12502
lthumb 1.23217 7.13406
rfemur 4.95204 3.98397 0.703596
rtibia 0
rfoot -20.5682 -20.9651
rtoes 45.9698
lfemur -28.9751 -1.42697 -24.898
ltibia 25.9617
lfoot -16.5428 5.16888
ltoes 9.59144
10
root 3.76275 17.4213 3.70193 21.4561 -7.60346 -1.36406
lowerback -11.4953 1.26774 7.70976
upperback -13.8987 1.22936 0.735111
thorax -8.38926 -0.0927433 -3.44977
lowerneck -2.42993 18.102 13.2363
upperneck 11.3376 22.7141 7.20162
head 4.46209 12.0398 1.48645
rclavicle -2.09718e-014 -1.11319e-014
rhumerus -9.8364 -23.861 27.2909
rradius 121.606
rwrist -58.8918
rhand -6.67559 -46.778
rfingers 7.12502
rthumb 19.1828 -75.852
lclavicle -2.09718e-014 -1.11319e-014
lhumerus 33.6789 27.5898 -16.3895
lradius 28.695
lwrist 24.9851
lhand -25.3707 -22.8892
lfingers 7.12502
lthumb 1.15353 7.0874
rfemur 4.9315 4.00722 0.662235
rtibia 1.59028e-014
rfoot -18.8583 -22.3665
rtoes 43.4475
lfemur -28.9751 -1.31512 -24.9786
ltibia 25.9367
lfoot -16.5585 5.0973
ltoes 9.61375
11
root 3.76187 17.4217 3.69971 21.5083 -7.86587 -1.28729
lowerback -11.4744 1.33606 7.55145
upperback -13.9527 1.33046 0.6985
thorax -8.44824 -0.0335466 -3.39689
lowerneck -2.54219 18.0821 13.1267
upperneck 11.5343 22.6493 7.37396
head 4.509 12.0236 1.5618
rclavicle -1.6201e-014 -6.36111e-015
rhumerus -9.87045 -23.897 27.4049
rradius 121.664
rwrist -59.1527
rhand -6.12297 -46.6096
rfingers 7.12502
rthumb 19.7141 -75.6299
lclavicle -1.6201e-014 -6.36111e-015
lhumerus 33.4176 27.1927 -16.7955
lradius 28.8586
lwrist 25.6309
lhand -25.1461 -23.0315
lfingers 7.12502
lthumb 1.37046 6.94383
rfemur 4.75947 4.19038 0.482927
rtibia -1.27222e-014
rfoot -18.482 -22.6865
rtoes 42.7947
lfemur -29.0053 -1.31639 -25.0956
ltibia 25.8614
lfoot -16.3444 5.37457
ltoes 8.74896
12
root 3.76246 17.4242 3.69008 21.6704 -8.17849 -1.19139
lowerback -11.4689 1.41559 7.33777
upperback -14.0078 1.44777 0.663139
thorax -8.49779 0.0394198 -3.31105
lowerneck -2.74925 18.0962 12.9763
upperneck 11.683 22.6159 7.57848
head 4.54765 12.021 1.65798
rclavicle 9.54166e-015 8.74653e-015
rhumerus -9.84678 -24.0244 27.4174
rradius 121.632
rwrist -59.1931
rhand -5.07233 -46.2118
rfingers 7.12502
rthumb 20.7239 -75.1253
lclavicle 9.54166e-015 8.74653e-015
lhumerus 33.3455 27.2038 -16.8555
lradius 28.8727
lwrist 25.7012
lhand -24.6181 -23.4587
lfingers 7.12502
lthumb 1.88036 6.51277
rfemur 4.40588 4.37236 0.24276
rtibia -3.18055e-015
rfoot -19.2036 -22.3415
rtoes 43.7461
lfemur -29.1873 -1.42486 -25.2072
ltibia 25.764
lfoot -16.3839 5.6377
ltoes 9.46752
13
root 3.76044 17.426 3.68329 21.686 -8.25564 -1.08439
lowerback -11.4636 1.40688 7.15847
upperback -13.9584 1.44331 0.645586
thorax -8.44072 0.056234 -3.23056
lowerneck -2.868 18.1435 12.9473
upperneck 11.6531 22.6644 7.56467
head 4.55562 12.042 1.67045
rclavicle -2.04748e-014 7.95139e-016
rhumerus -9.78652 -24.2803 27.3296
rradius 121.511
rwrist -59.1185
rhand -4.73439 -46.0453
rfingers 7.12502
rthumb 21.0486 -74.923
lclavicle -2.04748e-014 7.95139e-016
lhumerus 33.5037 27.5894 -16.526
lradius 28.7666
lwrist 25.3874
lhand -24.5285 -23.6942
lfingers 7.12502
lthumb 1.96693 6.27644
rfemur 4.32662 4.39231 0.120404
rtibia 1.27222e-014
rfoot -19.924 -21.8847
rtoes 44.7192
lfemur -29.207 -1.46801 -25.301
ltibia 25.6698
lfoot -16.0836 5.67616
ltoes 8.95109
